<svg xmlns="http://www.w3.org/2000/svg" xmlns:xlink="http://www.w3.org/1999/xlink" width="1500" zoomAndPan="magnify" viewBox="0 0 1125 1124.99995" height="1500" preserveAspectRatio="xMidYMid meet" version="1.0"><defs><g/><clipPath id="f87af1ea26"><path d="M 166.234375 154.433594 L 958.234375 154.433594 L 958.234375 946.433594 L 166.234375 946.433594 Z M 166.234375 154.433594 " clip-rule="nonzero"/></clipPath></defs><rect x="-112.5" width="1350" fill="#131313" y="-112.499995" height="1349.99994" fill-opacity="1"/><path fill="#e7bd70" d="M 551.640625 897.234375 L 548.964844 897.140625 L 549.378906 886.625 L 551.960938 886.714844 Z M 583.675781 896.738281 L 583.042969 886.234375 L 585.617188 886.0625 L 586.351562 896.5625 Z M 517.042969 894.476562 L 514.402344 894.121094 L 515.832031 883.695312 L 518.410156 884.039062 Z M 618.171875 892.902344 L 616.488281 882.511719 L 619.050781 882.089844 L 620.800781 892.464844 Z M 482.898438 888.28125 L 480.289062 887.65625 L 482.773438 877.425781 L 485.28125 878.027344 Z M 652.117188 885.636719 L 649.40625 875.464844 L 651.898438 874.789062 L 654.699219 884.933594 Z M 449.527344 878.675781 L 446.984375 877.792969 L 450.496094 867.871094 L 452.945312 868.722656 Z M 685.167969 874.984375 L 681.425781 865.148438 L 683.84375 864.21875 L 687.667969 874.023438 Z M 417.28125 865.757812 L 414.863281 864.636719 L 419.316406 855.09375 L 421.6875 856.195312 Z M 716.96875 861.0625 L 712.25 851.652344 L 714.570312 850.480469 L 719.328125 859.875 Z M 386.507812 849.664062 L 384.210938 848.300781 L 389.609375 839.265625 L 391.84375 840.589844 Z M 747.207031 844.027344 L 741.570312 835.140625 L 743.765625 833.738281 L 749.441406 842.605469 Z M 357.496094 830.574219 L 355.351562 828.992188 L 361.628906 820.539062 L 363.722656 822.089844 Z M 775.605469 824.050781 L 769.09375 815.785156 L 771.148438 814.164062 L 777.679688 822.417969 Z M 330.539062 808.699219 L 328.5625 806.90625 L 335.652344 799.128906 L 337.574219 800.867188 Z M 801.84375 801.371094 L 794.578125 793.753906 L 796.441406 791.960938 L 803.769531 799.515625 Z M 305.898438 784.257812 L 304.097656 782.273438 L 311.9375 775.246094 L 313.664062 777.15625 Z M 825.726562 776.175781 L 817.738281 769.324219 L 819.414062 767.355469 L 827.464844 774.132812 Z M 283.796875 757.484375 L 282.21875 755.347656 L 290.695312 749.109375 L 292.238281 751.195312 Z M 846.984375 748.726562 L 838.355469 742.699219 L 839.824219 740.570312 L 848.511719 746.519531 Z M 264.480469 728.644531 L 263.121094 726.363281 L 272.183594 721 L 273.511719 723.230469 Z M 865.402344 719.300781 L 856.21875 714.152344 C 856.636719 713.40625 857.054688 712.652344 857.464844 711.894531 L 866.703125 716.945312 C 866.273438 717.726562 865.839844 718.515625 865.402344 719.300781 Z M 248.144531 698.027344 L 247.019531 695.617188 L 256.578125 691.203125 L 257.667969 693.539062 Z M 880.789062 688.144531 L 871.121094 683.976562 L 872.152344 681.578125 L 881.839844 685.695312 Z M 234.960938 665.925781 L 234.078125 663.390625 L 244.035156 659.980469 L 244.886719 662.421875 Z M 892.953125 655.644531 L 882.9375 652.410156 C 883.203125 651.597656 883.457031 650.777344 883.710938 649.957031 L 893.769531 653.058594 C 893.503906 653.921875 893.234375 654.785156 892.953125 655.644531 Z M 225.074219 632.652344 L 224.453125 630.050781 L 234.699219 627.648438 L 235.300781 630.164062 Z M 901.796875 622.039062 L 891.492188 619.875 L 892.015625 617.34375 L 902.335938 619.414062 Z M 218.582031 598.550781 L 218.226562 595.910156 L 228.664062 594.523438 L 229.011719 597.097656 Z M 907.210938 587.746094 L 896.746094 586.632812 L 897.015625 584.046875 L 907.488281 585.097656 Z M 215.53125 563.976562 L 215.441406 561.324219 L 225.960938 560.988281 L 226.050781 563.578125 Z M 909.1875 553.617188 L 898.660156 553.773438 L 898.671875 551.445312 L 909.195312 551.445312 Z M 226.414062 529.917969 L 215.90625 529.28125 L 216.074219 526.625 L 226.578125 527.324219 Z M 897.84375 526.722656 L 897.65625 524.128906 L 908.152344 523.335938 L 908.34375 525.988281 Z M 230.105469 496.453125 L 219.714844 494.785156 L 220.152344 492.148438 L 230.527344 493.898438 Z M 893.84375 493.304688 L 893.394531 490.746094 L 903.753906 488.898438 L 904.214844 491.523438 Z M 237.125 463.539062 L 226.953125 460.835938 L 227.648438 458.253906 L 237.800781 461.042969 Z M 886.5 460.441406 C 886.273438 459.617188 886.042969 458.792969 885.808594 457.96875 L 895.929688 455.074219 C 896.175781 455.9375 896.421875 456.804688 896.660156 457.671875 Z M 247.421875 431.503906 L 237.578125 427.78125 L 238.535156 425.277344 L 248.351562 429.074219 Z M 875.910156 428.53125 L 874.949219 426.101562 L 884.734375 422.214844 L 885.703125 424.679688 Z M 260.902344 400.644531 L 251.480469 395.949219 L 252.683594 393.558594 L 262.066406 398.320312 Z M 862.140625 397.804688 L 860.957031 395.507812 L 870.296875 390.65625 L 871.519531 393.023438 Z M 277.40625 371.289062 L 268.496094 365.683594 L 269.9375 363.421875 L 278.796875 369.105469 Z M 845.363281 368.625 L 843.964844 366.46875 L 852.765625 360.695312 L 854.226562 362.945312 Z M 296.757812 343.742188 L 288.453125 337.265625 L 290.109375 335.164062 L 298.355469 341.703125 Z M 825.761719 341.265625 L 824.152344 339.253906 L 832.335938 332.636719 L 834.011719 334.726562 Z M 318.757812 318.25 L 311.140625 310.984375 L 312.988281 309.058594 L 320.550781 316.382812 Z M 803.542969 316 L 801.71875 314.136719 L 809.21875 306.75 L 811.078125 308.644531 Z M 343.183594 295.070312 L 336.320312 287.09375 L 338.359375 285.355469 L 345.144531 293.398438 Z M 778.90625 293.042969 L 776.917969 291.378906 L 783.636719 283.277344 L 785.6875 284.992188 Z M 369.78125 274.441406 L 363.75 265.8125 L 365.949219 264.292969 L 371.902344 272.972656 Z M 752.101562 272.65625 L 749.960938 271.199219 L 755.835938 262.464844 L 758.050781 263.96875 Z M 398.296875 256.570312 L 393.160156 247.382812 L 395.492188 246.089844 L 400.554688 255.320312 Z M 723.410156 255.042969 L 721.125 253.804688 L 726.109375 244.535156 L 728.457031 245.808594 Z M 428.453125 241.644531 L 424.261719 231.988281 L 426.710938 230.9375 L 430.816406 240.628906 Z M 693.089844 240.394531 L 690.691406 239.390625 L 694.714844 229.664062 L 697.1875 230.699219 Z M 459.949219 229.824219 L 456.746094 219.796875 L 459.292969 218.996094 L 462.421875 229.046875 Z M 661.445312 228.863281 L 658.976562 228.117188 L 661.996094 218.03125 L 664.558594 218.808594 Z M 492.484375 221.234375 L 490.316406 210.933594 L 492.929688 210.394531 L 495.023438 220.707031 Z M 628.835938 220.585938 L 626.292969 220.085938 L 628.28125 209.75 L 630.902344 210.265625 Z M 525.722656 215.953125 L 524.59375 205.488281 L 527.242188 205.210938 L 528.308594 215.683594 Z M 595.546875 215.625 L 592.960938 215.382812 L 593.914062 204.898438 L 596.570312 205.148438 Z M 559.332031 214.007812 L 559.238281 203.480469 L 561.910156 203.464844 L 561.925781 213.992188 Z M 559.332031 214.007812 " fill-opacity="1" fill-rule="nonzero"/><path fill="#e7bd70" d="M 562.234375 869.949219 C 386.054688 869.949219 242.71875 726.613281 242.71875 550.433594 C 242.71875 374.25 386.054688 230.914062 562.234375 230.914062 C 738.421875 230.914062 881.753906 374.25 881.753906 550.433594 C 881.753906 726.613281 738.417969 869.949219 562.234375 869.949219 Z M 562.234375 233.617188 C 387.542969 233.617188 245.417969 375.738281 245.417969 550.433594 C 245.417969 725.128906 387.542969 867.253906 562.234375 867.253906 C 736.929688 867.253906 879.054688 725.128906 879.054688 550.433594 C 879.050781 375.738281 736.929688 233.617188 562.234375 233.617188 Z M 562.234375 233.617188 " fill-opacity="1" fill-rule="nonzero"/><path fill="#e7bd70" d="M 565.203125 920.714844 C 563.5 920.714844 562.109375 918.816406 562.097656 917.109375 C 562.082031 915.390625 563.457031 913.304688 565.175781 913.289062 L 567.972656 912.566406 C 567.992188 912.566406 568.007812 912.566406 568.019531 912.566406 C 569.71875 912.566406 571.105469 914.355469 571.128906 916.050781 C 571.152344 917.769531 569.78125 919.917969 568.066406 919.945312 L 565.230469 920.714844 C 565.21875 920.714844 565.210938 920.714844 565.203125 920.714844 Z M 548.390625 920.714844 C 548.355469 920.714844 548.316406 920.714844 548.277344 920.714844 L 545.433594 919.949219 C 543.722656 919.871094 542.394531 918.09375 542.472656 916.378906 C 542.550781 914.667969 544.042969 913.273438 545.71875 913.253906 L 548.507812 913.292969 C 550.222656 913.355469 551.5625 915.398438 551.5 917.117188 C 551.433594 918.789062 550.054688 920.714844 548.390625 920.714844 Z M 584.816406 918.992188 C 583.1875 918.992188 581.820312 917.722656 581.71875 916.078125 C 581.609375 914.363281 582.910156 912.890625 584.625 912.785156 L 587.421875 912.601562 C 589.175781 912.472656 590.613281 913.78125 590.730469 915.492188 C 590.847656 917.203125 589.550781 918.683594 587.839844 918.800781 L 585.011719 918.984375 C 584.945312 918.988281 584.882812 918.992188 584.816406 918.992188 Z M 528.804688 918.167969 C 528.710938 918.167969 528.617188 918.164062 528.523438 918.15625 L 525.6875 917.886719 C 523.980469 917.71875 522.734375 916.195312 522.902344 914.488281 C 523.074219 912.78125 524.609375 911.523438 526.304688 911.703125 L 529.085938 911.96875 C 530.792969 912.121094 532.054688 913.632812 531.898438 915.34375 C 531.746094 916.957031 530.394531 918.167969 528.804688 918.167969 Z M 604.371094 917.277344 C 602.8125 917.277344 601.46875 916.101562 601.289062 914.515625 C 601.09375 912.8125 602.320312 911.273438 604.023438 911.078125 L 606.796875 910.75 C 608.503906 910.527344 610.050781 911.757812 610.253906 913.457031 C 610.464844 915.160156 609.25 916.710938 607.546875 916.917969 L 604.722656 917.25 C 604.605469 917.269531 604.488281 917.277344 604.371094 917.277344 Z M 509.308594 915.875 C 509.160156 915.875 509.011719 915.863281 508.859375 915.84375 L 506.050781 915.425781 C 504.355469 915.167969 503.1875 913.582031 503.445312 911.890625 C 503.703125 910.191406 505.285156 909.023438 506.980469 909.28125 L 509.75 909.691406 C 511.449219 909.9375 512.628906 911.515625 512.378906 913.210938 C 512.15625 914.761719 510.828125 915.875 509.308594 915.875 Z M 623.808594 914.515625 C 622.320312 914.515625 621.003906 913.441406 620.75 911.925781 C 620.464844 910.234375 621.601562 908.632812 623.296875 908.347656 L 626.046875 907.867188 C 627.734375 907.574219 629.351562 908.695312 629.652344 910.382812 C 629.949219 912.074219 628.824219 913.6875 627.132812 913.988281 L 624.332031 914.472656 C 624.15625 914.503906 623.980469 914.515625 623.808594 914.515625 Z M 489.964844 912.542969 C 489.757812 912.542969 489.554688 912.523438 489.347656 912.484375 L 486.5625 911.914062 C 484.882812 911.566406 483.804688 909.921875 484.15625 908.238281 C 484.503906 906.554688 486.144531 905.472656 487.828125 905.828125 L 490.570312 906.386719 C 492.253906 906.726562 493.34375 908.367188 493.003906 910.046875 C 492.707031 911.523438 491.414062 912.542969 489.964844 912.542969 Z M 643.070312 910.722656 C 641.648438 910.722656 640.367188 909.742188 640.042969 908.296875 C 639.664062 906.621094 640.714844 904.960938 642.386719 904.582031 L 645.109375 903.957031 C 646.769531 903.5625 648.449219 904.601562 648.84375 906.273438 C 649.238281 907.945312 648.199219 909.617188 646.527344 910.011719 L 643.757812 910.644531 C 643.527344 910.695312 643.292969 910.722656 643.070312 910.722656 Z M 470.824219 908.167969 C 470.566406 908.167969 470.308594 908.136719 470.050781 908.070312 L 467.292969 907.347656 C 465.632812 906.910156 464.648438 905.210938 465.089844 903.550781 C 465.53125 901.898438 467.230469 900.902344 468.890625 901.34375 L 471.589844 902.050781 C 473.253906 902.476562 474.253906 904.167969 473.828125 905.832031 C 473.46875 907.234375 472.207031 908.167969 470.824219 908.167969 Z M 662.09375 905.886719 C 660.738281 905.886719 659.492188 904.992188 659.105469 903.625 C 658.640625 901.972656 659.605469 900.253906 661.253906 899.789062 L 663.9375 899.019531 C 665.585938 898.546875 667.308594 899.484375 667.789062 901.132812 C 668.269531 902.78125 667.320312 904.507812 665.675781 904.988281 L 662.9375 905.773438 C 662.65625 905.851562 662.378906 905.886719 662.09375 905.886719 Z M 451.945312 902.769531 C 451.636719 902.769531 451.324219 902.722656 451.011719 902.628906 C 450.101562 902.339844 449.191406 902.046875 448.28125 901.753906 C 446.648438 901.21875 445.761719 899.460938 446.296875 897.832031 C 446.828125 896.199219 448.585938 895.316406 450.214844 895.847656 C 451.101562 896.136719 451.992188 896.421875 452.878906 896.699219 C 454.515625 897.214844 455.425781 898.960938 454.910156 900.597656 C 454.492188 901.921875 453.265625 902.769531 451.945312 902.769531 Z M 680.835938 900.039062 C 679.542969 900.039062 678.335938 899.226562 677.894531 897.9375 C 677.339844 896.3125 678.203125 894.550781 679.832031 893.992188 L 682.476562 893.078125 C 684.097656 892.503906 685.867188 893.363281 686.433594 894.984375 C 687 896.601562 686.148438 898.375 684.527344 898.941406 L 681.84375 899.875 C 681.507812 899.988281 681.167969 900.039062 680.835938 900.039062 Z M 433.339844 896.34375 C 432.976562 896.34375 432.605469 896.28125 432.25 896.144531 L 429.578125 895.128906 C 427.976562 894.507812 427.179688 892.710938 427.796875 891.113281 C 428.417969 889.503906 430.21875 888.707031 431.8125 889.332031 L 434.433594 890.328125 C 436.039062 890.929688 436.851562 892.722656 436.25 894.328125 C 435.777344 895.574219 434.59375 896.34375 433.339844 896.34375 Z M 699.230469 893.179688 C 698.003906 893.179688 696.839844 892.445312 696.351562 891.238281 C 695.707031 889.644531 696.476562 887.835938 698.066406 887.195312 L 700.660156 886.132812 C 702.242188 885.480469 704.058594 886.234375 704.714844 887.824219 C 705.367188 889.410156 704.609375 891.226562 703.023438 891.878906 L 700.394531 892.953125 C 700.011719 893.105469 699.621094 893.179688 699.230469 893.179688 Z M 415.113281 888.914062 C 414.695312 888.914062 414.273438 888.832031 413.867188 888.652344 L 411.257812 887.492188 C 409.691406 886.785156 408.996094 884.945312 409.699219 883.382812 C 410.402344 881.816406 412.242188 881.121094 413.804688 881.824219 L 416.367188 882.960938 C 417.9375 883.652344 418.648438 885.484375 417.960938 887.054688 C 417.449219 888.222656 416.308594 888.914062 415.113281 888.914062 Z M 717.199219 885.359375 C 716.027344 885.359375 714.90625 884.695312 714.382812 883.566406 C 713.65625 882.011719 714.332031 880.160156 715.886719 879.4375 L 718.402344 878.246094 C 719.953125 877.511719 721.804688 878.164062 722.542969 879.714844 C 723.28125 881.265625 722.621094 883.117188 721.074219 883.855469 L 718.511719 885.066406 C 718.085938 885.269531 717.636719 885.359375 717.199219 885.359375 Z M 397.324219 880.523438 C 396.855469 880.523438 396.378906 880.417969 395.925781 880.191406 C 395.078125 879.761719 394.226562 879.332031 393.378906 878.890625 C 391.855469 878.101562 391.261719 876.226562 392.050781 874.699219 C 392.84375 873.175781 394.722656 872.582031 396.238281 873.375 C 397.066406 873.804688 397.894531 874.226562 398.726562 874.648438 C 400.257812 875.421875 400.875 877.289062 400.101562 878.820312 C 399.554688 879.898438 398.460938 880.523438 397.324219 880.523438 Z M 734.714844 876.582031 C 733.605469 876.582031 732.53125 875.984375 731.972656 874.941406 C 731.164062 873.425781 731.734375 871.546875 733.246094 870.738281 L 735.695312 869.410156 C 737.203125 868.59375 739.089844 869.144531 739.914062 870.652344 C 740.734375 872.160156 740.179688 874.046875 738.671875 874.871094 L 736.175781 876.214844 C 735.710938 876.464844 735.210938 876.582031 734.714844 876.582031 Z M 380.019531 871.1875 C 379.496094 871.1875 378.960938 871.054688 378.476562 870.773438 L 376.015625 869.347656 C 374.53125 868.484375 374.035156 866.582031 374.898438 865.101562 C 375.761719 863.617188 377.664062 863.125 379.144531 863.984375 L 381.574219 865.390625 C 383.0625 866.246094 383.574219 868.148438 382.71875 869.632812 C 382.140625 870.628906 381.097656 871.1875 380.019531 871.1875 Z M 751.742188 866.882812 C 750.695312 866.882812 749.671875 866.351562 749.085938 865.390625 C 748.195312 863.925781 748.660156 862.011719 750.121094 861.121094 L 752.507812 859.660156 C 753.972656 858.761719 755.882812 859.210938 756.78125 860.671875 C 757.683594 862.132812 757.230469 864.046875 755.773438 864.949219 L 753.355469 866.429688 C 752.851562 866.734375 752.292969 866.882812 751.742188 866.882812 Z M 363.25 860.933594 C 362.671875 860.933594 362.082031 860.773438 361.5625 860.433594 C 360.765625 859.917969 359.96875 859.394531 359.171875 858.871094 C 357.742188 857.921875 357.351562 855.996094 358.296875 854.566406 C 359.246094 853.132812 361.175781 852.742188 362.605469 853.691406 C 363.382812 854.203125 364.160156 854.714844 364.941406 855.21875 C 366.378906 856.152344 366.792969 858.074219 365.859375 859.515625 C 365.261719 860.433594 364.265625 860.933594 363.25 860.933594 Z M 768.234375 856.273438 C 767.246094 856.273438 766.273438 855.800781 765.671875 854.925781 C 764.699219 853.511719 765.054688 851.578125 766.472656 850.601562 L 768.785156 849.015625 C 770.199219 848.046875 772.132812 848.394531 773.105469 849.804688 C 774.082031 851.21875 773.730469 853.148438 772.316406 854.128906 L 769.996094 855.726562 C 769.453125 856.09375 768.839844 856.273438 768.234375 856.273438 Z M 347.054688 849.804688 C 346.421875 849.804688 345.78125 849.613281 345.226562 849.207031 L 342.9375 847.53125 C 341.558594 846.515625 341.261719 844.570312 342.277344 843.1875 C 343.292969 841.804688 345.234375 841.511719 346.621094 842.527344 L 348.886719 844.183594 C 350.273438 845.195312 350.578125 847.140625 349.566406 848.527344 C 348.960938 849.363281 348.015625 849.804688 347.054688 849.804688 Z M 784.136719 844.792969 C 783.199219 844.792969 782.269531 844.371094 781.664062 843.566406 C 780.621094 842.203125 780.886719 840.253906 782.253906 839.214844 L 784.460938 837.511719 C 785.820312 836.457031 787.773438 836.707031 788.820312 838.0625 C 789.875 839.421875 789.625 841.375 788.269531 842.421875 L 786.015625 844.15625 C 785.457031 844.585938 784.792969 844.792969 784.136719 844.792969 Z M 331.484375 837.828125 C 330.796875 837.828125 330.101562 837.601562 329.527344 837.128906 L 327.332031 835.332031 C 326.007812 834.246094 325.816406 832.285156 326.90625 830.960938 C 327.996094 829.632812 329.953125 829.445312 331.28125 830.535156 L 333.449219 832.3125 C 334.78125 833.394531 334.976562 835.351562 333.898438 836.683594 C 333.28125 837.433594 332.386719 837.828125 331.484375 837.828125 Z M 799.410156 832.480469 C 798.527344 832.480469 797.652344 832.105469 797.035156 831.386719 C 795.929688 830.078125 796.089844 828.117188 797.398438 827.003906 C 798.105469 826.40625 798.8125 825.800781 799.511719 825.191406 C 800.8125 824.0625 802.769531 824.210938 803.894531 825.507812 C 805.015625 826.804688 804.875 828.765625 803.582031 829.890625 C 802.859375 830.511719 802.140625 831.128906 801.417969 831.746094 C 800.835938 832.238281 800.117188 832.480469 799.410156 832.480469 Z M 316.578125 825.039062 C 315.839844 825.039062 315.089844 824.773438 314.496094 824.234375 L 312.390625 822.316406 C 311.128906 821.152344 311.050781 819.1875 312.214844 817.925781 C 313.371094 816.664062 315.339844 816.585938 316.605469 817.746094 L 318.664062 819.628906 C 319.9375 820.777344 320.035156 822.742188 318.882812 824.015625 C 318.269531 824.695312 317.425781 825.039062 316.578125 825.039062 Z M 814.007812 819.371094 C 813.183594 819.371094 812.359375 819.042969 811.746094 818.394531 C 810.570312 817.144531 810.632812 815.179688 811.878906 814.003906 C 812.554688 813.367188 813.226562 812.722656 813.890625 812.082031 C 815.128906 810.886719 817.089844 810.925781 818.28125 812.160156 C 819.476562 813.394531 819.441406 815.363281 818.207031 816.550781 C 817.519531 817.214844 816.832031 817.871094 816.136719 818.527344 C 815.539062 819.089844 814.773438 819.371094 814.007812 819.371094 Z M 302.382812 811.480469 C 301.585938 811.480469 300.789062 811.171875 300.179688 810.5625 L 298.179688 808.535156 C 296.984375 807.308594 297.003906 805.339844 298.234375 804.144531 C 299.464844 802.945312 301.433594 802.96875 302.628906 804.195312 L 304.585938 806.183594 C 305.792969 807.398438 305.789062 809.367188 304.574219 810.574219 C 303.96875 811.179688 303.175781 811.480469 302.382812 811.480469 Z M 827.894531 805.492188 C 827.125 805.492188 826.359375 805.210938 825.753906 804.640625 C 824.511719 803.457031 824.460938 801.492188 825.640625 800.246094 L 827.558594 798.214844 C 828.730469 796.957031 830.695312 796.894531 831.949219 798.0625 C 833.203125 799.238281 833.269531 801.199219 832.097656 802.453125 L 830.148438 804.527344 C 829.535156 805.167969 828.714844 805.492188 827.894531 805.492188 Z M 288.933594 797.183594 C 288.082031 797.183594 287.230469 796.832031 286.613281 796.148438 C 285.980469 795.4375 285.351562 794.730469 284.722656 794.011719 C 283.59375 792.71875 283.726562 790.757812 285.015625 789.628906 C 286.3125 788.496094 288.273438 788.632812 289.402344 789.921875 C 290.011719 790.617188 290.628906 791.3125 291.25 792.007812 C 292.390625 793.289062 292.285156 795.246094 291.003906 796.394531 C 290.410156 796.921875 289.667969 797.183594 288.933594 797.183594 Z M 841.023438 790.894531 C 840.308594 790.894531 839.59375 790.644531 839.007812 790.148438 C 837.707031 789.03125 837.550781 787.070312 838.664062 785.769531 C 839.269531 785.058594 839.867188 784.351562 840.464844 783.636719 C 841.566406 782.328125 843.523438 782.148438 844.84375 783.253906 C 846.15625 784.355469 846.332031 786.316406 845.230469 787.628906 C 844.617188 788.359375 844.003906 789.085938 843.386719 789.804688 C 842.773438 790.523438 841.898438 790.894531 841.023438 790.894531 Z M 276.265625 782.203125 C 275.355469 782.203125 274.453125 781.800781 273.839844 781.035156 L 272.070312 778.808594 C 271.007812 777.460938 271.242188 775.503906 272.59375 774.445312 C 273.941406 773.386719 275.894531 773.621094 276.957031 774.96875 L 278.691406 777.152344 C 279.761719 778.492188 279.546875 780.449219 278.207031 781.519531 C 277.632812 781.980469 276.945312 782.203125 276.265625 782.203125 Z M 853.359375 775.609375 C 852.699219 775.609375 852.035156 775.398438 851.46875 774.964844 C 850.109375 773.917969 849.851562 771.96875 850.898438 770.609375 C 851.464844 769.875 852.023438 769.132812 852.582031 768.390625 C 853.613281 767.019531 855.558594 766.746094 856.933594 767.769531 C 858.304688 768.800781 858.582031 770.746094 857.554688 772.121094 C 856.984375 772.882812 856.40625 773.644531 855.828125 774.398438 C 855.214844 775.191406 854.292969 775.609375 853.359375 775.609375 Z M 264.417969 766.5625 C 263.449219 766.5625 262.496094 766.109375 261.886719 765.265625 L 260.246094 762.953125 C 259.253906 761.550781 259.589844 759.613281 260.992188 758.621094 C 262.390625 757.632812 264.332031 757.96875 265.324219 759.367188 L 266.941406 761.644531 C 267.941406 763.042969 267.617188 764.980469 266.222656 765.980469 C 265.675781 766.378906 265.042969 766.5625 264.417969 766.5625 Z M 864.867188 759.679688 C 864.265625 759.679688 863.660156 759.507812 863.125 759.144531 C 861.703125 758.183594 861.335938 756.25 862.300781 754.828125 L 863.871094 752.503906 C 864.828125 751.078125 866.761719 750.703125 868.179688 751.65625 C 869.605469 752.617188 869.988281 754.542969 869.027344 755.96875 L 867.4375 758.320312 C 866.839844 759.203125 865.863281 759.679688 864.867188 759.679688 Z M 253.425781 750.324219 C 252.402344 750.324219 251.398438 749.816406 250.804688 748.890625 L 249.289062 746.496094 C 248.375 745.042969 248.8125 743.125 250.265625 742.210938 C 251.714844 741.292969 253.636719 741.734375 254.550781 743.1875 L 256.039062 745.542969 C 256.964844 746.988281 256.542969 748.910156 255.09375 749.832031 C 254.578125 750.167969 254 750.324219 253.425781 750.324219 Z M 875.507812 743.160156 C 874.957031 743.160156 874.402344 743.011719 873.898438 742.707031 C 872.433594 741.820312 871.964844 739.910156 872.851562 738.441406 L 874.296875 736.039062 C 875.171875 734.566406 877.078125 734.082031 878.554688 734.964844 C 880.027344 735.839844 880.511719 737.75 879.628906 739.222656 L 878.160156 741.660156 C 877.582031 742.625 876.554688 743.160156 875.507812 743.160156 Z M 243.324219 733.527344 C 242.238281 733.527344 241.183594 732.960938 240.617188 731.949219 L 239.226562 729.476562 C 238.394531 727.976562 238.9375 726.085938 240.4375 725.253906 C 241.933594 724.414062 243.828125 724.960938 244.660156 726.457031 L 246.023438 728.890625 C 246.867188 730.382812 246.339844 732.277344 244.847656 733.125 C 244.363281 733.398438 243.839844 733.527344 243.324219 733.527344 Z M 885.242188 726.082031 C 884.742188 726.082031 884.238281 725.964844 883.769531 725.707031 C 882.257812 724.894531 881.699219 723.007812 882.511719 721.496094 C 882.953125 720.679688 883.386719 719.855469 883.816406 719.035156 C 884.609375 717.515625 886.484375 716.925781 888.011719 717.726562 C 889.535156 718.519531 890.117188 720.398438 889.320312 721.921875 C 888.878906 722.769531 888.429688 723.609375 887.976562 724.453125 C 887.414062 725.492188 886.347656 726.082031 885.242188 726.082031 Z M 234.132812 716.21875 C 232.992188 716.21875 231.890625 715.585938 231.347656 714.492188 L 230.097656 711.945312 C 229.347656 710.402344 229.992188 708.542969 231.53125 707.792969 C 233.074219 707.042969 234.933594 707.6875 235.683594 709.230469 L 236.910156 711.726562 C 237.675781 713.261719 237.046875 715.128906 235.511719 715.890625 C 235.070312 716.117188 234.597656 716.21875 234.132812 716.21875 Z M 894.058594 708.5 C 893.617188 708.5 893.167969 708.402344 892.742188 708.207031 C 891.191406 707.476562 890.519531 705.625 891.246094 704.074219 L 892.425781 701.53125 C 893.140625 699.972656 894.980469 699.28125 896.542969 700.003906 C 898.101562 700.71875 898.789062 702.5625 898.074219 704.121094 L 896.875 706.710938 C 896.347656 707.839844 895.222656 708.5 894.058594 708.5 Z M 225.894531 698.449219 C 224.691406 698.449219 223.546875 697.746094 223.042969 696.570312 L 221.933594 693.972656 C 221.265625 692.390625 222.003906 690.566406 223.582031 689.898438 C 225.164062 689.238281 226.984375 689.96875 227.65625 691.546875 L 228.75 694.113281 C 229.429688 695.6875 228.699219 697.515625 227.125 698.195312 C 226.722656 698.367188 226.304688 698.449219 225.894531 698.449219 Z M 901.910156 690.460938 C 901.519531 690.460938 901.128906 690.386719 900.746094 690.234375 C 899.15625 689.59375 898.386719 687.78125 899.027344 686.191406 L 900.070312 683.582031 C 900.703125 681.984375 902.519531 681.207031 904.101562 681.832031 C 905.699219 682.464844 906.480469 684.269531 905.847656 685.863281 L 904.789062 688.511719 C 904.304688 689.722656 903.140625 690.460938 901.910156 690.460938 Z M 218.625 680.273438 C 217.363281 680.273438 216.171875 679.496094 215.707031 678.242188 L 214.738281 675.574219 C 214.152344 673.957031 214.988281 672.175781 216.605469 671.597656 C 218.210938 671.003906 220 671.847656 220.578125 673.464844 L 221.539062 676.09375 C 222.136719 677.707031 221.308594 679.488281 219.699219 680.085938 C 219.347656 680.210938 218.984375 680.273438 218.625 680.273438 Z M 908.777344 672.015625 C 908.449219 672.015625 908.109375 671.960938 907.777344 671.847656 C 906.152344 671.292969 905.285156 669.527344 905.839844 667.902344 L 906.738281 665.238281 C 907.28125 663.609375 909.035156 662.734375 910.671875 663.277344 C 912.296875 663.820312 913.175781 665.582031 912.632812 667.207031 L 911.71875 669.90625 C 911.28125 671.199219 910.070312 672.015625 908.777344 672.015625 Z M 212.332031 661.675781 C 211.003906 661.675781 209.777344 660.824219 209.363281 659.484375 L 208.535156 656.761719 C 208.039062 655.121094 208.976562 653.386719 210.621094 652.894531 C 212.261719 652.394531 213.996094 653.332031 214.488281 654.976562 L 215.300781 657.652344 C 215.808594 659.292969 214.886719 661.03125 213.25 661.539062 C 212.941406 661.632812 212.632812 661.675781 212.332031 661.675781 Z M 914.628906 653.261719 C 914.34375 653.261719 914.066406 653.222656 913.78125 653.144531 C 912.132812 652.679688 911.167969 650.960938 911.632812 649.308594 L 912.382812 646.613281 C 912.839844 644.960938 914.558594 644 916.203125 644.441406 C 917.855469 644.898438 918.828125 646.609375 918.375 648.261719 L 917.613281 650.996094 C 917.230469 652.363281 915.984375 653.261719 914.628906 653.261719 Z M 207.046875 642.769531 C 205.652344 642.769531 204.390625 641.828125 204.035156 640.414062 L 203.355469 637.648438 C 202.953125 635.980469 203.980469 634.304688 205.652344 633.902344 C 207.308594 633.5 208.996094 634.523438 209.398438 636.195312 L 210.066406 638.90625 C 210.480469 640.570312 209.472656 642.257812 207.804688 642.675781 C 207.550781 642.738281 207.296875 642.769531 207.046875 642.769531 Z M 919.453125 634.234375 C 919.226562 634.234375 918.996094 634.210938 918.765625 634.160156 C 917.09375 633.78125 916.042969 632.121094 916.417969 630.445312 L 917.023438 627.714844 C 917.382812 626.039062 919.035156 624.984375 920.714844 625.335938 C 922.390625 625.699219 923.457031 627.351562 923.09375 629.03125 L 922.480469 631.808594 C 922.152344 633.253906 920.875 634.234375 919.453125 634.234375 Z M 202.792969 623.605469 C 201.335938 623.605469 200.035156 622.574219 199.746094 621.085938 L 199.214844 618.296875 C 198.902344 616.609375 200.015625 614.988281 201.707031 614.675781 C 203.386719 614.371094 205.015625 615.476562 205.324219 617.160156 L 205.847656 619.90625 C 206.171875 621.589844 205.074219 623.222656 203.386719 623.546875 C 203.1875 623.589844 202.988281 623.605469 202.792969 623.605469 Z M 923.242188 614.96875 C 923.070312 614.96875 922.898438 614.957031 922.722656 614.925781 C 921.03125 614.640625 919.890625 613.035156 920.175781 611.34375 L 920.632812 608.589844 C 920.902344 606.898438 922.472656 605.734375 924.191406 606.011719 C 925.886719 606.285156 927.039062 607.878906 926.765625 609.574219 L 926.304688 612.378906 C 926.046875 613.894531 924.734375 614.96875 923.242188 614.96875 Z M 199.578125 604.242188 C 198.050781 604.242188 196.71875 603.117188 196.503906 601.558594 L 196.125 598.742188 C 195.902344 597.042969 197.101562 595.484375 198.800781 595.261719 C 200.503906 595.023438 202.0625 596.238281 202.285156 597.9375 L 202.65625 600.710938 C 202.894531 602.410156 201.703125 603.976562 200.003906 604.210938 C 199.863281 604.230469 199.71875 604.242188 199.578125 604.242188 Z M 925.988281 595.535156 C 925.871094 595.535156 925.753906 595.527344 925.636719 595.511719 C 923.929688 595.320312 922.707031 593.78125 922.898438 592.074219 L 923.207031 589.292969 C 923.390625 587.585938 924.9375 586.328125 926.625 586.535156 C 928.335938 586.714844 929.566406 588.25 929.386719 589.953125 L 929.074219 592.777344 C 928.894531 594.363281 927.550781 595.535156 925.988281 595.535156 Z M 197.402344 584.730469 C 195.804688 584.730469 194.449219 583.507812 194.308594 581.886719 L 194.082031 579.046875 C 193.953125 577.335938 195.234375 575.84375 196.945312 575.714844 C 198.617188 575.535156 200.148438 576.863281 200.277344 578.574219 L 200.503906 581.359375 C 200.648438 583.070312 199.378906 584.574219 197.671875 584.71875 C 197.582031 584.726562 197.492188 584.730469 197.402344 584.730469 Z M 927.695312 575.976562 C 927.636719 575.976562 927.570312 575.972656 927.511719 575.972656 C 925.796875 575.867188 924.492188 574.398438 924.59375 572.6875 L 924.753906 569.886719 C 924.84375 568.171875 926.230469 566.855469 928.023438 566.953125 C 929.734375 567.042969 931.050781 568.507812 930.957031 570.21875 L 930.796875 573.050781 C 930.699219 574.707031 929.328125 575.976562 927.695312 575.976562 Z M 196.277344 565.019531 C 194.605469 565.019531 193.226562 563.746094 193.175781 562.0625 L 193.097656 559.640625 C 193.054688 557.921875 194.414062 556.871094 196.128906 556.871094 C 196.152344 556.871094 196.179688 556.871094 196.203125 556.871094 C 197.886719 556.871094 199.269531 557.832031 199.3125 559.523438 L 199.386719 562.0625 C 199.441406 563.777344 198.09375 565.019531 196.378906 565.019531 C 196.34375 565.019531 196.3125 565.019531 196.277344 565.019531 Z M 928.359375 556.871094 C 928.351562 556.871094 928.34375 556.871094 928.335938 556.871094 C 926.617188 556.871094 925.238281 555.199219 925.253906 553.480469 L 925.261719 550.558594 C 925.261719 550.441406 925.269531 550.257812 925.285156 550.144531 C 925.269531 550.023438 925.261719 549.871094 925.261719 549.746094 L 925.242188 546.6875 C 925.230469 544.972656 926.609375 543.296875 928.324219 543.296875 C 928.335938 543.296875 928.34375 543.296875 928.351562 543.296875 C 930.058594 543.296875 931.445312 544.910156 931.460938 546.621094 L 931.476562 549.578125 C 931.476562 549.699219 931.46875 549.882812 931.457031 549.996094 C 931.472656 550.121094 931.480469 550.277344 931.480469 550.402344 L 931.46875 553.519531 C 931.453125 555.226562 930.0625 556.871094 928.359375 556.871094 Z M 196.1875 546.011719 C 196.164062 546.011719 196.140625 546.011719 196.117188 546.011719 C 194.402344 546.011719 193.042969 544.300781 193.078125 542.585938 L 193.148438 539.613281 C 193.199219 537.894531 194.566406 536.4375 196.347656 536.535156 C 198.0625 536.585938 199.410156 537.984375 199.359375 539.703125 L 199.289062 542.734375 C 199.257812 544.425781 197.871094 546.011719 196.1875 546.011719 Z M 927.808594 533.191406 C 926.171875 533.191406 924.800781 531.90625 924.710938 530.25 L 924.546875 527.460938 C 924.4375 525.746094 925.738281 524.273438 927.453125 524.167969 C 929.207031 524.066406 930.640625 525.363281 930.746094 527.074219 L 930.914062 529.914062 C 931.007812 531.628906 929.691406 533.09375 927.980469 533.183594 C 927.921875 533.1875 927.867188 533.191406 927.808594 533.191406 Z M 197.128906 525.898438 C 197.050781 525.898438 196.96875 525.894531 196.894531 525.890625 C 195.183594 525.761719 193.898438 524.269531 194.027344 522.558594 L 194.25 519.726562 C 194.390625 518.011719 195.917969 516.742188 197.601562 516.882812 C 199.3125 517.023438 200.585938 518.523438 200.445312 520.234375 L 200.222656 523.023438 C 200.105469 524.652344 198.742188 525.898438 197.128906 525.898438 Z M 926.214844 513.625 C 924.648438 513.625 923.304688 512.441406 923.128906 510.847656 L 922.816406 508.074219 C 922.617188 506.371094 923.839844 504.828125 925.542969 504.628906 C 927.257812 504.441406 928.789062 505.652344 928.992188 507.355469 L 929.308594 510.183594 C 929.492188 511.890625 928.257812 513.421875 926.554688 513.605469 C 926.441406 513.617188 926.332031 513.625 926.214844 513.625 Z M 199.113281 506.371094 C 198.984375 506.371094 198.851562 506.359375 198.714844 506.34375 C 197.015625 506.125 195.8125 504.570312 196.027344 502.871094 L 196.402344 500.046875 C 196.632812 498.347656 198.199219 497.140625 199.902344 497.386719 C 201.601562 497.617188 202.792969 499.1875 202.5625 500.886719 L 202.195312 503.65625 C 201.992188 505.222656 200.65625 506.371094 199.113281 506.371094 Z M 923.578125 494.175781 C 922.078125 494.175781 920.761719 493.09375 920.511719 491.566406 L 920.050781 488.8125 C 919.765625 487.121094 920.898438 485.515625 922.589844 485.222656 C 924.300781 484.9375 925.890625 486.066406 926.179688 487.757812 L 926.648438 490.570312 C 926.921875 492.265625 925.773438 493.859375 924.078125 494.132812 C 923.910156 494.160156 923.738281 494.175781 923.578125 494.175781 Z M 202.140625 486.972656 C 201.953125 486.972656 201.765625 486.957031 201.574219 486.921875 C 199.886719 486.609375 198.769531 484.992188 199.082031 483.304688 L 199.605469 480.507812 C 199.925781 478.824219 201.558594 477.722656 203.238281 478.042969 C 204.925781 478.363281 206.03125 479.992188 205.707031 481.675781 L 205.191406 484.425781 C 204.917969 485.921875 203.609375 486.972656 202.140625 486.972656 Z M 919.894531 474.890625 C 918.46875 474.890625 917.183594 473.898438 916.863281 472.449219 L 916.253906 469.714844 C 915.875 468.042969 916.925781 466.375 918.601562 466 C 920.285156 465.621094 921.9375 466.671875 922.316406 468.34375 L 922.933594 471.117188 C 923.300781 472.792969 922.238281 474.453125 920.5625 474.816406 C 920.339844 474.863281 920.113281 474.890625 919.894531 474.890625 Z M 206.207031 467.765625 C 205.964844 467.765625 205.71875 467.738281 205.476562 467.679688 C 203.804688 467.28125 202.777344 465.601562 203.179688 463.933594 L 203.855469 461.167969 C 204.269531 459.5 205.953125 458.488281 207.621094 458.90625 C 209.285156 459.320312 210.300781 461.003906 209.886719 462.671875 L 209.222656 465.386719 C 208.878906 466.808594 207.605469 467.765625 206.207031 467.765625 Z M 915.183594 455.832031 C 913.820312 455.832031 912.570312 454.929688 912.1875 453.550781 L 911.4375 450.859375 C 910.96875 449.207031 911.925781 447.488281 913.574219 447.019531 C 915.222656 446.554688 916.941406 447.503906 917.414062 449.160156 L 918.183594 451.898438 C 918.636719 453.550781 917.664062 455.261719 916.007812 455.71875 C 915.734375 455.796875 915.457031 455.832031 915.183594 455.832031 Z M 211.300781 448.808594 C 211.003906 448.808594 210.703125 448.765625 210.410156 448.679688 C 208.761719 448.1875 207.828125 446.457031 208.316406 444.8125 L 209.144531 442.089844 C 209.648438 440.449219 211.386719 439.527344 213.027344 440.03125 C 214.664062 440.535156 215.585938 442.273438 215.082031 443.914062 L 214.273438 446.589844 C 213.871094 447.9375 212.636719 448.808594 211.300781 448.808594 Z M 909.457031 437.054688 C 908.15625 437.054688 906.945312 436.234375 906.507812 434.9375 L 905.609375 432.285156 C 905.054688 430.664062 905.914062 428.894531 907.539062 428.339844 C 909.171875 427.78125 910.929688 428.644531 911.484375 430.265625 L 912.402344 432.953125 C 912.945312 434.582031 912.074219 436.34375 910.445312 436.890625 C 910.117188 437.003906 909.785156 437.054688 909.457031 437.054688 Z M 217.425781 430.109375 C 217.078125 430.109375 216.726562 430.050781 216.378906 429.925781 C 214.761719 429.347656 213.921875 427.570312 214.503906 425.953125 L 215.476562 423.265625 C 216.074219 421.660156 217.855469 420.835938 219.464844 421.425781 C 221.078125 422.019531 221.898438 423.804688 221.308594 425.414062 L 220.351562 428.046875 C 219.894531 429.320312 218.699219 430.109375 217.425781 430.109375 Z M 902.707031 418.621094 C 901.472656 418.621094 900.304688 417.878906 899.820312 416.660156 L 898.777344 414.058594 C 898.136719 412.472656 898.902344 410.660156 900.492188 410.015625 C 902.078125 409.375 903.898438 410.136719 904.539062 411.726562 L 905.597656 414.359375 C 906.230469 415.953125 905.449219 417.761719 903.855469 418.394531 C 903.480469 418.550781 903.089844 418.621094 902.707031 418.621094 Z M 224.554688 411.769531 C 224.152344 411.769531 223.746094 411.6875 223.351562 411.523438 C 221.769531 410.859375 221.027344 409.035156 221.691406 407.453125 L 222.804688 404.832031 C 223.480469 403.25 225.308594 402.519531 226.886719 403.199219 C 228.464844 403.875 229.195312 405.703125 228.519531 407.28125 L 227.421875 409.863281 C 226.921875 411.054688 225.769531 411.769531 224.554688 411.769531 Z M 894.996094 400.609375 C 893.816406 400.609375 892.691406 399.933594 892.171875 398.792969 L 890.996094 396.273438 C 890.265625 394.722656 890.9375 392.871094 892.492188 392.140625 C 894.039062 391.414062 895.890625 392.078125 896.621094 393.632812 L 897.816406 396.207031 C 898.53125 397.769531 897.84375 399.613281 896.285156 400.324219 C 895.871094 400.515625 895.429688 400.609375 894.996094 400.609375 Z M 232.664062 393.847656 C 232.210938 393.847656 231.75 393.746094 231.3125 393.535156 C 229.769531 392.789062 229.125 390.929688 229.871094 389.382812 L 231.125 386.824219 C 231.886719 385.285156 233.75 384.65625 235.289062 385.414062 C 236.824219 386.175781 237.453125 388.039062 236.695312 389.578125 L 235.464844 392.09375 C 234.925781 393.203125 233.820312 393.847656 232.664062 393.847656 Z M 886.335938 383.039062 C 885.21875 383.039062 884.140625 382.433594 883.585938 381.382812 L 882.277344 378.921875 C 881.464844 377.410156 882.03125 375.527344 883.542969 374.714844 C 885.054688 373.902344 886.9375 374.472656 887.75 375.980469 L 889.082031 378.480469 C 889.882812 380 889.300781 381.878906 887.78125 382.679688 C 887.320312 382.925781 886.824219 383.039062 886.335938 383.039062 Z M 241.726562 376.394531 C 241.214844 376.394531 240.703125 376.269531 240.222656 376.003906 C 238.722656 375.175781 238.179688 373.285156 239.007812 371.785156 L 240.402344 369.292969 C 241.242188 367.792969 243.136719 367.269531 244.632812 368.113281 C 246.128906 368.953125 246.65625 370.847656 245.816406 372.34375 L 244.449219 374.789062 C 243.882812 375.8125 242.820312 376.394531 241.726562 376.394531 Z M 876.738281 365.953125 C 875.675781 365.953125 874.644531 365.414062 874.066406 364.4375 L 872.628906 362.050781 C 871.738281 360.585938 872.203125 358.675781 873.664062 357.785156 C 875.136719 356.894531 877.042969 357.355469 877.9375 358.820312 L 879.402344 361.253906 C 880.28125 362.726562 879.800781 364.632812 878.328125 365.515625 C 877.824219 365.8125 877.277344 365.953125 876.738281 365.953125 Z M 251.710938 359.460938 C 251.144531 359.460938 250.578125 359.304688 250.0625 358.984375 C 248.609375 358.074219 248.167969 356.15625 249.082031 354.703125 L 250.605469 352.289062 C 251.527344 350.847656 253.453125 350.421875 254.898438 351.347656 C 256.34375 352.269531 256.765625 354.191406 255.84375 355.640625 L 254.347656 358 C 253.757812 358.941406 252.746094 359.460938 251.710938 359.460938 Z M 866.230469 349.402344 C 865.226562 349.402344 864.246094 348.917969 863.648438 348.023438 C 863.128906 347.253906 862.605469 346.488281 862.082031 345.71875 C 861.117188 344.304688 861.472656 342.371094 862.890625 341.402344 C 864.304688 340.429688 866.242188 340.796875 867.210938 342.210938 C 867.746094 342.992188 868.28125 343.777344 868.808594 344.566406 C 869.765625 345.992188 869.382812 347.917969 867.957031 348.875 C 867.421875 349.230469 866.820312 349.402344 866.230469 349.402344 Z M 262.585938 343.089844 C 261.964844 343.089844 261.34375 342.90625 260.800781 342.523438 C 259.398438 341.535156 259.058594 339.597656 260.046875 338.195312 L 261.695312 335.875 C 262.691406 334.480469 264.632812 334.160156 266.03125 335.15625 C 267.425781 336.152344 267.746094 338.09375 266.75 339.492188 L 265.132812 341.773438 C 264.523438 342.628906 263.5625 343.089844 262.585938 343.089844 Z M 854.847656 333.429688 C 853.902344 333.429688 852.976562 333 852.363281 332.191406 L 850.671875 329.964844 C 849.628906 328.601562 849.890625 326.652344 851.253906 325.609375 C 852.613281 324.566406 854.566406 324.828125 855.609375 326.1875 L 857.324219 328.449219 C 858.355469 329.820312 858.082031 331.765625 856.710938 332.800781 C 856.15625 333.222656 855.5 333.429688 854.847656 333.429688 Z M 274.316406 327.328125 C 273.644531 327.328125 272.96875 327.113281 272.398438 326.664062 C 271.046875 325.601562 270.8125 323.652344 271.875 322.300781 L 273.640625 320.070312 C 274.714844 318.726562 276.664062 318.511719 278.007812 319.582031 C 279.347656 320.648438 279.566406 322.605469 278.5 323.945312 L 276.757812 326.144531 C 276.148438 326.921875 275.238281 327.328125 274.316406 327.328125 Z M 842.628906 318.078125 C 841.746094 318.078125 840.867188 317.703125 840.25 316.972656 L 838.445312 314.839844 C 837.332031 313.535156 837.484375 311.574219 838.789062 310.460938 C 840.097656 309.347656 842.058594 309.503906 843.167969 310.808594 L 845.007812 312.972656 C 846.109375 314.285156 845.941406 316.246094 844.625 317.347656 C 844.046875 317.839844 843.335938 318.078125 842.628906 318.078125 Z M 286.871094 312.222656 C 286.140625 312.222656 285.410156 311.96875 284.820312 311.449219 C 283.53125 310.320312 283.40625 308.355469 284.535156 307.066406 L 286.414062 304.9375 C 287.554688 303.65625 289.519531 303.542969 290.804688 304.679688 C 292.085938 305.820312 292.203125 307.78125 291.0625 309.066406 L 289.203125 311.164062 C 288.589844 311.863281 287.734375 312.222656 286.871094 312.222656 Z M 829.601562 303.398438 C 828.769531 303.398438 827.945312 303.066406 827.332031 302.410156 L 825.414062 300.378906 C 824.230469 299.136719 824.285156 297.167969 825.527344 295.984375 C 826.777344 294.808594 828.738281 294.855469 829.921875 296.097656 L 831.871094 298.167969 C 833.042969 299.421875 832.976562 301.386719 831.722656 302.558594 C 831.125 303.121094 830.363281 303.398438 829.601562 303.398438 Z M 300.207031 297.808594 C 299.421875 297.808594 298.640625 297.515625 298.035156 296.925781 C 296.808594 295.730469 296.785156 293.761719 297.984375 292.535156 L 299.976562 290.507812 C 301.179688 289.289062 303.148438 289.277344 304.367188 290.488281 C 305.589844 291.691406 305.597656 293.660156 304.390625 294.878906 L 302.429688 296.871094 C 301.820312 297.496094 301.011719 297.808594 300.207031 297.808594 Z M 815.808594 289.429688 C 815.03125 289.429688 814.257812 289.140625 813.652344 288.558594 L 811.632812 286.632812 C 810.386719 285.449219 810.332031 283.484375 811.515625 282.238281 C 812.703125 280.992188 814.664062 280.941406 815.90625 282.121094 L 817.964844 284.085938 C 819.199219 285.273438 819.238281 287.242188 818.046875 288.476562 C 817.4375 289.109375 816.625 289.429688 815.808594 289.429688 Z M 314.289062 284.132812 C 313.449219 284.132812 312.613281 283.796875 312 283.132812 C 310.839844 281.867188 310.917969 279.902344 312.179688 278.742188 L 314.28125 276.820312 C 315.554688 275.667969 317.519531 275.765625 318.667969 277.035156 C 319.820312 278.304688 319.722656 280.273438 318.453125 281.421875 L 316.390625 283.308594 C 315.792969 283.863281 315.039062 284.132812 314.289062 284.132812 Z M 801.285156 276.210938 C 800.570312 276.210938 799.847656 275.964844 799.261719 275.457031 L 797.132812 273.640625 C 795.828125 272.527344 795.667969 270.566406 796.777344 269.257812 C 797.890625 267.949219 799.847656 267.789062 801.15625 268.902344 L 803.3125 270.75 C 804.613281 271.867188 804.761719 273.832031 803.644531 275.132812 C 803.027344 275.84375 802.160156 276.210938 801.285156 276.210938 Z M 329.074219 271.230469 C 328.179688 271.230469 327.292969 270.84375 326.675781 270.101562 C 325.585938 268.777344 325.773438 266.820312 327.09375 265.726562 L 329.285156 263.925781 C 330.613281 262.84375 332.570312 263.042969 333.65625 264.367188 C 334.742188 265.699219 334.542969 267.65625 333.214844 268.742188 L 331.050781 270.515625 C 330.472656 271 329.769531 271.230469 329.074219 271.230469 Z M 786.082031 263.78125 C 785.417969 263.78125 784.75 263.566406 784.183594 263.132812 L 781.964844 261.425781 C 780.597656 260.386719 780.335938 258.433594 781.375 257.070312 C 782.421875 255.703125 784.367188 255.445312 785.730469 256.484375 L 787.984375 258.214844 C 789.339844 259.261719 789.59375 261.214844 788.542969 262.570312 C 787.933594 263.363281 787.011719 263.78125 786.082031 263.78125 Z M 344.523438 259.136719 C 343.570312 259.136719 342.632812 258.699219 342.019531 257.875 C 341 256.496094 341.289062 254.550781 342.667969 253.53125 L 344.953125 251.851562 C 346.339844 250.839844 348.285156 251.140625 349.296875 252.527344 C 350.308594 253.914062 350.007812 255.855469 348.617188 256.871094 L 346.367188 258.527344 C 345.8125 258.9375 345.164062 259.136719 344.523438 259.136719 Z M 770.222656 252.179688 C 769.613281 252.179688 768.996094 252 768.457031 251.625 L 766.152344 250.042969 C 764.734375 249.078125 764.363281 247.144531 765.328125 245.726562 C 766.292969 244.304688 768.226562 243.9375 769.644531 244.90625 L 771.996094 246.519531 C 773.40625 247.496094 773.757812 249.433594 772.777344 250.839844 C 772.175781 251.714844 771.210938 252.179688 770.222656 252.179688 Z M 360.585938 247.886719 C 359.582031 247.886719 358.59375 247.394531 357.992188 246.492188 C 357.042969 245.0625 357.4375 243.132812 358.871094 242.1875 L 361.246094 240.632812 C 362.683594 239.699219 364.609375 240.109375 365.546875 241.546875 C 366.480469 242.988281 366.070312 244.910156 364.628906 245.847656 L 362.296875 247.371094 C 361.773438 247.722656 361.175781 247.886719 360.585938 247.886719 Z M 753.773438 241.4375 C 753.21875 241.4375 752.65625 241.289062 752.148438 240.980469 L 749.757812 239.523438 C 748.285156 238.632812 747.8125 236.726562 748.699219 235.257812 C 749.585938 233.789062 751.492188 233.316406 752.960938 234.203125 L 755.394531 235.683594 C 756.855469 236.585938 757.316406 238.496094 756.417969 239.960938 C 755.835938 240.914062 754.816406 241.4375 753.773438 241.4375 Z M 377.226562 237.519531 C 376.160156 237.519531 375.121094 236.96875 374.542969 235.984375 C 373.675781 234.503906 374.171875 232.601562 375.652344 231.730469 L 378.101562 230.304688 C 379.582031 229.449219 381.488281 229.957031 382.34375 231.445312 C 383.203125 232.929688 382.691406 234.828125 381.207031 235.6875 L 378.796875 237.089844 C 378.300781 237.378906 377.761719 237.519531 377.226562 237.519531 Z M 736.753906 231.59375 C 736.25 231.59375 735.742188 231.472656 735.273438 231.214844 L 732.808594 229.890625 C 731.289062 229.085938 730.71875 227.203125 731.519531 225.691406 C 732.328125 224.171875 734.210938 223.601562 735.722656 224.40625 L 738.238281 225.757812 C 739.746094 226.578125 740.308594 228.460938 739.488281 229.972656 C 738.921875 231.003906 737.855469 231.59375 736.753906 231.59375 Z M 394.386719 228.058594 C 393.261719 228.058594 392.175781 227.445312 391.621094 226.378906 C 390.835938 224.851562 391.433594 222.976562 392.957031 222.191406 L 395.476562 220.902344 C 397.003906 220.121094 398.871094 220.734375 399.652344 222.265625 C 400.429688 223.792969 399.820312 225.664062 398.289062 226.441406 L 395.808594 227.710938 C 395.355469 227.945312 394.867188 228.058594 394.386719 228.058594 Z M 719.226562 222.675781 C 718.78125 222.675781 718.328125 222.578125 717.894531 222.375 L 715.355469 221.179688 C 713.804688 220.457031 713.128906 218.609375 713.851562 217.050781 C 714.578125 215.496094 716.417969 214.820312 717.984375 215.546875 L 720.5625 216.761719 C 722.109375 217.496094 722.769531 219.351562 722.035156 220.902344 C 721.503906 222.023438 720.386719 222.675781 719.226562 222.675781 Z M 412.023438 219.539062 C 410.839844 219.539062 409.707031 218.859375 409.191406 217.707031 C 408.488281 216.144531 409.183594 214.304688 410.75 213.601562 L 413.332031 212.445312 C 414.910156 211.757812 416.734375 212.460938 417.429688 214.027344 C 418.125 215.597656 417.417969 217.433594 415.847656 218.128906 L 413.300781 219.261719 C 412.886719 219.449219 412.453125 219.539062 412.023438 219.539062 Z M 701.234375 214.710938 C 700.839844 214.710938 700.4375 214.636719 700.050781 214.480469 L 697.457031 213.425781 C 695.863281 212.785156 695.09375 210.976562 695.730469 209.386719 C 696.371094 207.792969 698.175781 207.023438 699.773438 207.660156 L 702.417969 208.734375 C 704 209.386719 704.757812 211.203125 704.109375 212.789062 C 703.613281 213.988281 702.453125 214.710938 701.234375 214.710938 Z M 430.085938 211.980469 C 428.839844 211.980469 427.664062 211.222656 427.191406 209.992188 C 426.566406 208.394531 427.363281 206.59375 428.964844 205.976562 L 431.621094 204.957031 C 433.21875 204.351562 435.015625 205.152344 435.628906 206.761719 C 436.238281 208.363281 435.429688 210.15625 433.824219 210.769531 L 431.210938 211.769531 C 430.839844 211.910156 430.457031 211.980469 430.085938 211.980469 Z M 682.839844 207.730469 C 682.496094 207.730469 682.152344 207.675781 681.808594 207.554688 C 680.933594 207.25 680.046875 206.941406 679.164062 206.644531 C 677.535156 206.09375 676.667969 204.328125 677.222656 202.699219 C 677.769531 201.078125 679.539062 200.207031 681.160156 200.757812 C 682.066406 201.066406 682.96875 201.378906 683.867188 201.691406 C 685.484375 202.261719 686.335938 204.035156 685.769531 205.652344 C 685.324219 206.929688 684.121094 207.730469 682.839844 207.730469 Z M 448.578125 205.386719 C 447.269531 205.386719 446.050781 204.550781 445.625 203.242188 C 445.089844 201.609375 445.980469 199.855469 447.613281 199.324219 L 450.324219 198.453125 C 451.949219 197.925781 453.703125 198.839844 454.226562 200.472656 C 454.742188 202.113281 453.835938 203.855469 452.203125 204.375 L 449.542969 205.230469 C 449.222656 205.335938 448.894531 205.386719 448.578125 205.386719 Z M 664.121094 201.769531 C 663.835938 201.769531 663.542969 201.730469 663.253906 201.648438 L 660.566406 200.882812 C 658.917969 200.417969 657.953125 198.703125 658.417969 197.046875 C 658.886719 195.390625 660.597656 194.429688 662.253906 194.898438 L 664.984375 195.675781 C 666.632812 196.152344 667.582031 197.878906 667.101562 199.523438 C 666.707031 200.882812 665.46875 201.769531 664.121094 201.769531 Z M 467.398438 199.804688 C 466.023438 199.804688 464.769531 198.886719 464.394531 197.5 C 463.953125 195.839844 464.9375 194.136719 466.59375 193.695312 L 469.34375 192.972656 C 471.011719 192.53125 472.699219 193.535156 473.132812 195.199219 C 473.5625 196.859375 472.566406 198.554688 470.90625 198.984375 L 468.199219 199.699219 C 467.929688 199.769531 467.664062 199.804688 467.398438 199.804688 Z M 645.125 196.828125 C 644.890625 196.828125 644.65625 196.800781 644.417969 196.746094 L 641.691406 196.125 C 640.015625 195.75 638.964844 194.089844 639.339844 192.414062 C 639.714844 190.738281 641.386719 189.6875 643.050781 190.058594 L 645.824219 190.6875 C 647.492188 191.078125 648.535156 192.746094 648.144531 194.417969 C 647.816406 195.855469 646.539062 196.828125 645.125 196.828125 Z M 486.488281 195.246094 C 485.050781 195.246094 483.761719 194.242188 483.453125 192.777344 C 483.097656 191.101562 484.171875 189.453125 485.851562 189.101562 L 488.636719 188.523438 C 490.308594 188.183594 491.957031 189.269531 492.300781 190.953125 C 492.640625 192.636719 491.554688 194.273438 489.871094 194.617188 L 487.132812 195.183594 C 486.917969 195.226562 486.703125 195.246094 486.488281 195.246094 Z M 625.882812 192.917969 C 625.707031 192.917969 625.527344 192.902344 625.347656 192.867188 L 622.589844 192.394531 C 620.898438 192.113281 619.757812 190.511719 620.039062 188.820312 C 620.320312 187.128906 621.925781 185.984375 623.613281 186.269531 L 626.417969 186.75 C 628.105469 187.042969 629.238281 188.65625 628.941406 190.34375 C 628.679688 191.851562 627.367188 192.917969 625.882812 192.917969 Z M 505.800781 191.726562 C 504.292969 191.726562 502.972656 190.625 502.734375 189.09375 C 502.476562 187.394531 503.636719 185.808594 505.332031 185.546875 L 508.144531 185.125 C 509.832031 184.863281 511.417969 186.050781 511.667969 187.746094 C 511.917969 189.445312 510.742188 191.023438 509.046875 191.273438 L 506.277344 191.6875 C 506.117188 191.710938 505.957031 191.726562 505.800781 191.726562 Z M 606.464844 190.046875 C 606.34375 190.046875 606.214844 190.039062 606.089844 190.027344 L 603.316406 189.703125 C 601.609375 189.511719 600.382812 187.972656 600.574219 186.269531 C 600.765625 184.5625 602.253906 183.335938 604.011719 183.527344 L 606.835938 183.855469 C 608.539062 184.0625 609.753906 185.609375 609.546875 187.3125 C 609.355469 188.886719 608.015625 190.046875 606.464844 190.046875 Z M 525.273438 189.246094 C 523.699219 189.246094 522.347656 188.050781 522.1875 186.449219 C 522.015625 184.742188 523.261719 183.21875 524.96875 183.046875 L 527.800781 182.773438 C 529.511719 182.644531 531.023438 183.875 531.179688 185.582031 C 531.335938 187.292969 530.082031 188.808594 528.371094 188.964844 L 525.589844 189.234375 C 525.484375 189.242188 525.378906 189.246094 525.273438 189.246094 Z M 586.921875 188.222656 C 586.855469 188.222656 586.785156 188.21875 586.714844 188.214844 L 583.925781 188.042969 C 582.214844 187.941406 580.90625 186.46875 581.007812 184.753906 C 581.109375 183.046875 582.601562 181.714844 584.292969 181.839844 L 587.128906 182.015625 C 588.84375 182.128906 590.136719 183.609375 590.023438 185.324219 C 589.910156 186.964844 588.542969 188.222656 586.921875 188.222656 Z M 544.855469 187.601562 C 543.207031 187.601562 541.832031 186.410156 541.753906 184.742188 C 541.675781 183.027344 542.996094 181.625 544.710938 181.542969 L 547.554688 181.449219 C 549.207031 181.414062 550.714844 182.726562 550.777344 184.445312 C 550.847656 186.160156 549.511719 187.507812 547.792969 187.578125 L 545 187.601562 C 544.953125 187.601562 544.902344 187.601562 544.855469 187.601562 Z M 567.304688 187.601562 C 567.292969 187.601562 567.277344 187.601562 567.261719 187.601562 L 564.46875 187.488281 C 562.753906 187.480469 561.367188 186.039062 561.378906 184.324219 C 561.386719 182.609375 562.8125 181.082031 564.5 181.210938 L 567.351562 181.230469 C 569.066406 181.253906 570.4375 182.742188 570.414062 184.457031 C 570.390625 186.164062 569.003906 187.601562 567.304688 187.601562 Z M 567.304688 187.601562 " fill-opacity="1" fill-rule="nonzero"/><g clip-path="url(#f87af1ea26)"><path fill="#e7bd70" d="M 562.234375 946.433594 C 343.878906 946.433594 166.234375 768.789062 166.234375 550.433594 C 166.234375 332.074219 343.878906 154.433594 562.234375 154.433594 C 780.589844 154.433594 958.238281 332.074219 958.238281 550.433594 C 958.238281 768.789062 780.589844 946.433594 562.234375 946.433594 Z M 562.234375 162.578125 C 348.371094 162.578125 174.378906 336.570312 174.378906 550.433594 C 174.378906 764.292969 348.371094 938.285156 562.234375 938.285156 C 776.097656 938.285156 950.089844 764.296875 950.089844 550.433594 C 950.089844 336.566406 776.097656 162.578125 562.234375 162.578125 Z M 562.234375 162.578125 " fill-opacity="1" fill-rule="nonzero"/></g><g fill="#e7bd70" fill-opacity="1"><g transform="translate(306.506278, 545.336909)"><g><path d="M 10.25 -28.515625 L 16.59375 -28.515625 C 18.71875 -28.515625 20.472656 -28.789062 21.859375 -29.34375 C 23.242188 -29.90625 24.347656 -30.597656 25.171875 -31.421875 C 25.992188 -32.253906 26.570312 -33.175781 26.90625 -34.1875 C 27.25 -35.207031 27.421875 -36.179688 27.421875 -37.109375 C 27.421875 -38.171875 27.140625 -39.195312 26.578125 -40.1875 C 26.023438 -41.1875 25.273438 -42.0625 24.328125 -42.8125 C 23.390625 -43.5625 22.253906 -44.15625 20.921875 -44.59375 C 19.585938 -45.03125 18.164062 -45.25 16.65625 -45.25 L 10.25 -45.25 Z M 4.21875 0 L 4.21875 -50.921875 L 16.21875 -50.921875 C 17.875 -50.921875 19.707031 -50.664062 21.71875 -50.15625 C 23.726562 -49.644531 25.601562 -48.832031 27.34375 -47.71875 C 29.09375 -46.601562 30.550781 -45.171875 31.71875 -43.421875 C 32.882812 -41.679688 33.46875 -39.578125 33.46875 -37.109375 C 33.46875 -33.460938 32.554688 -30.414062 30.734375 -27.96875 C 28.921875 -25.519531 26.265625 -23.910156 22.765625 -23.140625 L 33.6875 0 L 27.140625 0 L 16.4375 -22.703125 L 10.25 -22.703125 L 10.25 0 Z M 4.21875 0 "/></g></g></g><g fill="#e7bd70" fill-opacity="1"><g transform="translate(357.352138, 545.336909)"><g><path d="M 5.015625 0 L 5.015625 -50.921875 L 36.375 -50.921875 L 36.375 -45.171875 L 11.0625 -45.171875 L 11.0625 -28.515625 L 33.53125 -28.515625 L 33.53125 -22.765625 L 11.0625 -22.765625 L 11.0625 -5.75 L 37.390625 -5.75 L 37.390625 0 Z M 5.015625 0 "/></g></g></g><g fill="#e7bd70" fill-opacity="1"><g transform="translate(414.162509, 545.336909)"><g><path d="M 30.1875 -16.078125 L 30.1875 -21.828125 L 40.234375 -21.828125 C 41.640625 -21.828125 42.570312 -21.472656 43.03125 -20.765625 C 43.488281 -20.066406 43.71875 -18.960938 43.71875 -17.453125 L 43.71875 -3.0625 C 41.78125 -1.9375 39.707031 -1.046875 37.5 -0.390625 C 35.289062 0.253906 32.953125 0.578125 30.484375 0.578125 C 26.890625 0.578125 23.515625 -0.0976562 20.359375 -1.453125 C 17.210938 -2.804688 14.460938 -4.660156 12.109375 -7.015625 C 9.753906 -9.367188 7.898438 -12.117188 6.546875 -15.265625 C 5.191406 -18.421875 4.515625 -21.796875 4.515625 -25.390625 C 4.515625 -28.972656 5.191406 -32.351562 6.546875 -35.53125 C 7.898438 -38.707031 9.753906 -41.472656 12.109375 -43.828125 C 14.460938 -46.179688 17.210938 -48.046875 20.359375 -49.421875 C 23.515625 -50.804688 26.890625 -51.5 30.484375 -51.5 C 32.953125 -51.5 35.289062 -51.179688 37.5 -50.546875 C 39.707031 -49.921875 41.804688 -49.03125 43.796875 -47.875 C 43.265625 -47.039062 42.707031 -46.222656 42.125 -45.421875 C 41.539062 -44.628906 40.984375 -43.820312 40.453125 -43 C 38.941406 -43.875 37.363281 -44.550781 35.71875 -45.03125 C 34.070312 -45.519531 32.328125 -45.765625 30.484375 -45.765625 C 27.710938 -45.765625 25.128906 -45.226562 22.734375 -44.15625 C 20.335938 -43.09375 18.226562 -41.625 16.40625 -39.75 C 14.582031 -37.882812 13.148438 -35.710938 12.109375 -33.234375 C 11.066406 -30.765625 10.546875 -28.148438 10.546875 -25.390625 C 10.546875 -22.628906 11.066406 -20.007812 12.109375 -17.53125 C 13.148438 -15.0625 14.582031 -12.914062 16.40625 -11.09375 C 18.226562 -9.269531 20.335938 -7.828125 22.734375 -6.765625 C 25.128906 -5.703125 27.710938 -5.171875 30.484375 -5.171875 C 33.003906 -5.171875 35.40625 -5.601562 37.6875 -6.46875 L 37.6875 -13.890625 C 37.6875 -14.710938 37.597656 -15.28125 37.421875 -15.59375 C 37.253906 -15.914062 36.785156 -16.078125 36.015625 -16.078125 Z M 30.1875 -16.078125 "/></g></g></g><g fill="#e7bd70" fill-opacity="1"><g transform="translate(477.592078, 545.336909)"><g><path d="M 7.203125 -50.921875 L 13.234375 -50.921875 L 13.234375 0 L 7.203125 0 Z M 7.203125 -50.921875 "/></g></g></g><g fill="#e7bd70" fill-opacity="1"><g transform="translate(510.907978, 545.336909)"><g><path d="M 32.671875 -45.90625 C 32.085938 -45.175781 31.515625 -44.445312 30.953125 -43.71875 C 30.398438 -42.988281 29.832031 -42.265625 29.25 -41.546875 C 28.851562 -41.929688 28.335938 -42.351562 27.703125 -42.8125 C 27.078125 -43.269531 26.363281 -43.691406 25.5625 -44.078125 C 24.769531 -44.472656 23.875 -44.800781 22.875 -45.0625 C 21.882812 -45.332031 20.832031 -45.46875 19.71875 -45.46875 C 16.90625 -45.46875 14.816406 -44.664062 13.453125 -43.0625 C 12.097656 -41.46875 11.421875 -39.578125 11.421875 -37.390625 C 11.421875 -36.179688 11.648438 -35.160156 12.109375 -34.328125 C 12.566406 -33.503906 13.171875 -32.8125 13.921875 -32.25 C 14.679688 -31.695312 15.53125 -31.226562 16.46875 -30.84375 C 17.414062 -30.457031 18.398438 -30.09375 19.421875 -29.75 C 21.023438 -29.164062 22.75 -28.472656 24.59375 -27.671875 C 26.4375 -26.878906 28.144531 -25.863281 29.71875 -24.625 C 31.289062 -23.382812 32.597656 -21.867188 33.640625 -20.078125 C 34.691406 -18.285156 35.21875 -16.128906 35.21875 -13.609375 C 35.21875 -11.421875 34.816406 -9.453125 34.015625 -7.703125 C 33.210938 -5.960938 32.117188 -4.472656 30.734375 -3.234375 C 29.347656 -1.992188 27.734375 -1.046875 25.890625 -0.390625 C 24.054688 0.253906 22.117188 0.578125 20.078125 0.578125 C 18.234375 0.578125 16.4375 0.320312 14.6875 -0.1875 C 12.945312 -0.695312 11.347656 -1.347656 9.890625 -2.140625 C 8.441406 -2.941406 7.144531 -3.828125 6 -4.796875 C 4.863281 -5.765625 3.976562 -6.738281 3.34375 -7.71875 L 7.125 -11.5 C 7.757812 -10.8125 8.507812 -10.09375 9.375 -9.34375 C 10.25 -8.59375 11.195312 -7.898438 12.21875 -7.265625 C 13.238281 -6.640625 14.351562 -6.132812 15.5625 -5.75 C 16.78125 -5.363281 18.09375 -5.171875 19.5 -5.171875 C 20.757812 -5.171875 21.96875 -5.347656 23.125 -5.703125 C 24.289062 -6.066406 25.320312 -6.597656 26.21875 -7.296875 C 27.125 -8.003906 27.84375 -8.890625 28.375 -9.953125 C 28.90625 -11.023438 29.171875 -12.265625 29.171875 -13.671875 C 29.171875 -15.617188 28.695312 -17.195312 27.75 -18.40625 C 26.800781 -19.613281 25.632812 -20.617188 24.25 -21.421875 C 22.875 -22.222656 21.429688 -22.863281 19.921875 -23.34375 C 18.421875 -23.832031 17.113281 -24.296875 16 -24.734375 C 15.132812 -25.078125 14.09375 -25.535156 12.875 -26.109375 C 11.664062 -26.691406 10.515625 -27.476562 9.421875 -28.46875 C 8.328125 -29.46875 7.390625 -30.707031 6.609375 -32.1875 C 5.835938 -33.664062 5.429688 -35.472656 5.390625 -37.609375 C 5.335938 -39.210938 5.550781 -40.8125 6.03125 -42.40625 C 6.519531 -44.007812 7.320312 -45.46875 8.4375 -46.78125 C 9.550781 -48.09375 11.03125 -49.160156 12.875 -49.984375 C 14.71875 -50.804688 16.972656 -51.21875 19.640625 -51.21875 C 21.578125 -51.21875 23.585938 -50.875 25.671875 -50.1875 C 27.765625 -49.507812 30.097656 -48.082031 32.671875 -45.90625 Z M 32.671875 -45.90625 "/></g></g></g><g fill="#e7bd70" fill-opacity="1"><g transform="translate(564.954287, 545.336909)"><g><path d="M 40.234375 -50.921875 L 40.234375 -45.171875 L 23.203125 -45.171875 L 23.203125 0 L 17.171875 0 L 17.171875 -45.171875 L 0 -45.171875 L 0 -50.921875 Z M 40.234375 -50.921875 "/></g></g></g><g fill="#e7bd70" fill-opacity="1"><g transform="translate(618.27325, 545.336909)"><g><path d="M 10.25 -28.515625 L 16.59375 -28.515625 C 18.71875 -28.515625 20.472656 -28.789062 21.859375 -29.34375 C 23.242188 -29.90625 24.347656 -30.597656 25.171875 -31.421875 C 25.992188 -32.253906 26.570312 -33.175781 26.90625 -34.1875 C 27.25 -35.207031 27.421875 -36.179688 27.421875 -37.109375 C 27.421875 -38.171875 27.140625 -39.195312 26.578125 -40.1875 C 26.023438 -41.1875 25.273438 -42.0625 24.328125 -42.8125 C 23.390625 -43.5625 22.253906 -44.15625 20.921875 -44.59375 C 19.585938 -45.03125 18.164062 -45.25 16.65625 -45.25 L 10.25 -45.25 Z M 4.21875 0 L 4.21875 -50.921875 L 16.21875 -50.921875 C 17.875 -50.921875 19.707031 -50.664062 21.71875 -50.15625 C 23.726562 -49.644531 25.601562 -48.832031 27.34375 -47.71875 C 29.09375 -46.601562 30.550781 -45.171875 31.71875 -43.421875 C 32.882812 -41.679688 33.46875 -39.578125 33.46875 -37.109375 C 33.46875 -33.460938 32.554688 -30.414062 30.734375 -27.96875 C 28.921875 -25.519531 26.265625 -23.910156 22.765625 -23.140625 L 33.6875 0 L 27.140625 0 L 16.4375 -22.703125 L 10.25 -22.703125 L 10.25 0 Z M 4.21875 0 "/></g></g></g><g fill="#e7bd70" fill-opacity="1"><g transform="translate(669.119106, 545.336909)"><g><path d="M 27.640625 -37.46875 L 26.984375 -39.859375 C 26.304688 -37.441406 25.457031 -35.09375 24.4375 -32.8125 C 23.425781 -30.53125 22.4375 -28.226562 21.46875 -25.90625 L 32.515625 -25.90625 C 31.691406 -27.84375 30.878906 -29.769531 30.078125 -31.6875 C 29.273438 -33.601562 28.460938 -35.53125 27.640625 -37.46875 Z M 49.546875 0 L 43.5 0 C 42.09375 -3.34375 40.675781 -6.695312 39.25 -10.0625 C 37.820312 -13.4375 36.40625 -16.800781 35 -20.15625 L 18.984375 -20.15625 C 17.578125 -16.800781 16.15625 -13.4375 14.71875 -10.0625 C 13.289062 -6.695312 11.875 -3.34375 10.46875 0 L 4.4375 0 C 8.21875 -8.925781 11.972656 -17.800781 15.703125 -26.625 C 19.441406 -35.445312 23.203125 -44.320312 26.984375 -53.25 C 30.773438 -44.320312 34.535156 -35.445312 38.265625 -26.625 C 42.003906 -17.800781 45.765625 -8.925781 49.546875 0 Z M 49.546875 0 "/></g></g></g><g fill="#e7bd70" fill-opacity="1"><g transform="translate(736.040121, 545.336909)"><g><path d="M 10.25 -28.515625 L 16.59375 -28.515625 C 18.71875 -28.515625 20.472656 -28.789062 21.859375 -29.34375 C 23.242188 -29.90625 24.347656 -30.597656 25.171875 -31.421875 C 25.992188 -32.253906 26.570312 -33.175781 26.90625 -34.1875 C 27.25 -35.207031 27.421875 -36.179688 27.421875 -37.109375 C 27.421875 -38.171875 27.140625 -39.195312 26.578125 -40.1875 C 26.023438 -41.1875 25.273438 -42.0625 24.328125 -42.8125 C 23.390625 -43.5625 22.253906 -44.15625 20.921875 -44.59375 C 19.585938 -45.03125 18.164062 -45.25 16.65625 -45.25 L 10.25 -45.25 Z M 4.21875 0 L 4.21875 -50.921875 L 16.21875 -50.921875 C 17.875 -50.921875 19.707031 -50.664062 21.71875 -50.15625 C 23.726562 -49.644531 25.601562 -48.832031 27.34375 -47.71875 C 29.09375 -46.601562 30.550781 -45.171875 31.71875 -43.421875 C 32.882812 -41.679688 33.46875 -39.578125 33.46875 -37.109375 C 33.46875 -32.691406 32.15625 -29.1875 29.53125 -26.59375 C 26.914062 -24 23.132812 -22.703125 18.1875 -22.703125 L 10.25 -22.703125 L 10.25 0 Z M 4.21875 0 "/></g></g></g><g fill="#e7bd70" fill-opacity="1"><g transform="translate(784.703817, 545.336909)"><g><path d="M 10.25 -28.515625 L 16.59375 -28.515625 C 18.71875 -28.515625 20.472656 -28.789062 21.859375 -29.34375 C 23.242188 -29.90625 24.347656 -30.597656 25.171875 -31.421875 C 25.992188 -32.253906 26.570312 -33.175781 26.90625 -34.1875 C 27.25 -35.207031 27.421875 -36.179688 27.421875 -37.109375 C 27.421875 -38.171875 27.140625 -39.195312 26.578125 -40.1875 C 26.023438 -41.1875 25.273438 -42.0625 24.328125 -42.8125 C 23.390625 -43.5625 22.253906 -44.15625 20.921875 -44.59375 C 19.585938 -45.03125 18.164062 -45.25 16.65625 -45.25 L 10.25 -45.25 Z M 4.21875 0 L 4.21875 -50.921875 L 16.21875 -50.921875 C 17.875 -50.921875 19.707031 -50.664062 21.71875 -50.15625 C 23.726562 -49.644531 25.601562 -48.832031 27.34375 -47.71875 C 29.09375 -46.601562 30.550781 -45.171875 31.71875 -43.421875 C 32.882812 -41.679688 33.46875 -39.578125 33.46875 -37.109375 C 33.46875 -32.691406 32.15625 -29.1875 29.53125 -26.59375 C 26.914062 -24 23.132812 -22.703125 18.1875 -22.703125 L 10.25 -22.703125 L 10.25 0 Z M 4.21875 0 "/></g></g></g><g fill="#e7bd70" fill-opacity="1"><g transform="translate(535.372039, 623.013142)"><g><path d="M 13.25 -2.578125 L 14.328125 -1 C 13.691406 -0.632812 13.007812 -0.34375 12.28125 -0.125 C 11.5625 0.0820312 10.796875 0.1875 9.984375 0.1875 C 8.804688 0.1875 7.703125 -0.03125 6.671875 -0.46875 C 5.640625 -0.914062 4.738281 -1.523438 3.96875 -2.296875 C 3.195312 -3.066406 2.585938 -3.96875 2.140625 -5 C 1.703125 -6.039062 1.484375 -7.148438 1.484375 -8.328125 C 1.484375 -9.492188 1.703125 -10.597656 2.140625 -11.640625 C 2.585938 -12.679688 3.195312 -13.585938 3.96875 -14.359375 C 4.738281 -15.128906 5.640625 -15.738281 6.671875 -16.1875 C 7.703125 -16.644531 8.804688 -16.875 9.984375 -16.875 C 10.796875 -16.875 11.5625 -16.769531 12.28125 -16.5625 C 13.007812 -16.363281 13.703125 -16.070312 14.359375 -15.6875 C 14.179688 -15.414062 13.992188 -15.148438 13.796875 -14.890625 C 13.609375 -14.628906 13.425781 -14.363281 13.25 -14.09375 C 12.757812 -14.375 12.242188 -14.59375 11.703125 -14.75 C 11.160156 -14.914062 10.585938 -15 9.984375 -15 C 9.078125 -15 8.226562 -14.820312 7.4375 -14.46875 C 6.65625 -14.125 5.96875 -13.644531 5.375 -13.03125 C 4.78125 -12.414062 4.3125 -11.703125 3.96875 -10.890625 C 3.625 -10.085938 3.453125 -9.234375 3.453125 -8.328125 C 3.453125 -7.421875 3.625 -6.5625 3.96875 -5.75 C 4.3125 -4.9375 4.78125 -4.226562 5.375 -3.625 C 5.96875 -3.03125 6.65625 -2.554688 7.4375 -2.203125 C 8.226562 -1.859375 9.078125 -1.6875 9.984375 -1.6875 C 11.160156 -1.6875 12.25 -1.984375 13.25 -2.578125 Z M 13.25 -2.578125 "/></g></g></g><g fill="#e7bd70" fill-opacity="1"><g transform="translate(557.543211, 623.013142)"><g><path d="M 13.25 -2.578125 L 14.328125 -1 C 13.691406 -0.632812 13.007812 -0.34375 12.28125 -0.125 C 11.5625 0.0820312 10.796875 0.1875 9.984375 0.1875 C 8.804688 0.1875 7.703125 -0.03125 6.671875 -0.46875 C 5.640625 -0.914062 4.738281 -1.523438 3.96875 -2.296875 C 3.195312 -3.066406 2.585938 -3.96875 2.140625 -5 C 1.703125 -6.039062 1.484375 -7.148438 1.484375 -8.328125 C 1.484375 -9.492188 1.703125 -10.597656 2.140625 -11.640625 C 2.585938 -12.679688 3.195312 -13.585938 3.96875 -14.359375 C 4.738281 -15.128906 5.640625 -15.738281 6.671875 -16.1875 C 7.703125 -16.644531 8.804688 -16.875 9.984375 -16.875 C 10.796875 -16.875 11.5625 -16.769531 12.28125 -16.5625 C 13.007812 -16.363281 13.703125 -16.070312 14.359375 -15.6875 C 14.179688 -15.414062 13.992188 -15.148438 13.796875 -14.890625 C 13.609375 -14.628906 13.425781 -14.363281 13.25 -14.09375 C 12.757812 -14.375 12.242188 -14.59375 11.703125 -14.75 C 11.160156 -14.914062 10.585938 -15 9.984375 -15 C 9.078125 -15 8.226562 -14.820312 7.4375 -14.46875 C 6.65625 -14.125 5.96875 -13.644531 5.375 -13.03125 C 4.78125 -12.414062 4.3125 -11.703125 3.96875 -10.890625 C 3.625 -10.085938 3.453125 -9.234375 3.453125 -8.328125 C 3.453125 -7.421875 3.625 -6.5625 3.96875 -5.75 C 4.3125 -4.9375 4.78125 -4.226562 5.375 -3.625 C 5.96875 -3.03125 6.65625 -2.554688 7.4375 -2.203125 C 8.226562 -1.859375 9.078125 -1.6875 9.984375 -1.6875 C 11.160156 -1.6875 12.25 -1.984375 13.25 -2.578125 Z M 13.25 -2.578125 "/></g></g></g><g fill="#e7bd70" fill-opacity="1"><g transform="translate(579.714383, 623.013142)"><g><path d="M 3.359375 -9.34375 L 5.4375 -9.34375 C 6.132812 -9.34375 6.707031 -9.429688 7.15625 -9.609375 C 7.613281 -9.796875 7.976562 -10.023438 8.25 -10.296875 C 8.519531 -10.566406 8.707031 -10.867188 8.8125 -11.203125 C 8.925781 -11.535156 8.984375 -11.851562 8.984375 -12.15625 C 8.984375 -12.507812 8.890625 -12.847656 8.703125 -13.171875 C 8.523438 -13.492188 8.28125 -13.78125 7.96875 -14.03125 C 7.664062 -14.28125 7.296875 -14.472656 6.859375 -14.609375 C 6.421875 -14.753906 5.953125 -14.828125 5.453125 -14.828125 L 3.359375 -14.828125 Z M 1.390625 0 L 1.390625 -16.6875 L 5.3125 -16.6875 C 5.851562 -16.6875 6.453125 -16.601562 7.109375 -16.4375 C 7.773438 -16.269531 8.394531 -16.003906 8.96875 -15.640625 C 9.539062 -15.273438 10.015625 -14.804688 10.390625 -14.234375 C 10.773438 -13.660156 10.96875 -12.96875 10.96875 -12.15625 C 10.96875 -10.707031 10.535156 -9.554688 9.671875 -8.703125 C 8.816406 -7.859375 7.582031 -7.4375 5.96875 -7.4375 L 3.359375 -7.4375 L 3.359375 0 Z M 1.390625 0 "/></g></g></g></svg>